<?xml version="1.0" encoding="UTF-8"?>
<svg version="1.1" xmlns="http://www.w3.org/2000/svg" width="64" height="64">
<path d="M0 0 C2.4375 0.75 2.4375 0.75 4.4375 2.75 C3.86057692 9.32692308 3.86057692 9.32692308 2.4375 10.75 C-2.7369687 11.06046812 -6.70980934 10.33455205 -11.5625 8.75 C-11.5625 10.73 -11.5625 12.71 -11.5625 14.75 C-10.97082031 14.79898437 -10.37914062 14.84796875 -9.76953125 14.8984375 C-6.14124318 15.24173392 -3.07872767 15.53677553 0.3125 16.9375 C1.01375 17.205625 1.715 17.47375 2.4375 17.75 C3.4275 17.09 4.4175 16.43 5.4375 15.75 C8.9375 15.8125 8.9375 15.8125 12.4375 16.75 C14.4375 18.9375 14.4375 18.9375 15.4375 21.75 C15.25156679 24.78690916 14.8709904 26.97739534 13.37890625 29.63671875 C12.25356887 32.16289105 12.36174298 33.75923022 12.5625 36.5 C12.66242502 42.67718312 11.01449697 46.87289705 6.89453125 51.47265625 C-0.67715074 58.52454313 -8.74302329 59.44845154 -18.70703125 59.1015625 C-23.71827348 58.64461032 -27.3691356 57.48870694 -31.5625 54.75 C-32.13355469 54.38777344 -32.70460938 54.02554688 -33.29296875 53.65234375 C-37.5228039 50.57135272 -40.16388118 46.73922504 -41.5625 41.75 C-41.70308466 38.65713743 -41.63271629 35.66954594 -41.41015625 32.58203125 C-41.59227261 29.19653475 -42.74940194 27.56147933 -44.5625 24.75 C-44.5625 21.625 -44.5625 21.625 -43.5625 18.75 C-41.375 16.8125 -41.375 16.8125 -38.5625 15.75 C-35.52382655 15.98832733 -33.28459981 16.3889501 -30.5625 17.75 C-28.85370025 16.99418472 -27.14593956 16.23567967 -25.44921875 15.453125 C-22.7864659 14.46079474 -20.36764151 14.54474574 -17.5625 14.75 C-17.58570312 14.05132812 -17.60890625 13.35265625 -17.6328125 12.6328125 C-17.65085937 11.72273438 -17.66890625 10.81265625 -17.6875 9.875 C-17.71070312 8.97007813 -17.73390625 8.06515625 -17.7578125 7.1328125 C-17.5625 4.75 -17.5625 4.75 -15.5625 2.75 C-13.28515625 2.40625 -13.28515625 2.40625 -10.625 2.25 C-6.58006026 2.01171194 -3.73436081 -0.36432788 0 0 Z " fill="#FE9E5E" transform="translate(46.5625,5.25)"/>
<path d="M0 0 C4.84921469 -0.30307592 8.84795975 -0.28510806 13.375 1.625 C14.57125 2.07875 15.7675 2.5325 17 3 C17.99 2.34 18.98 1.68 20 1 C23.5 1.0625 23.5 1.0625 27 2 C29 4.1875 29 4.1875 30 7 C29.81406679 10.03690916 29.4334904 12.22739534 27.94140625 14.88671875 C26.81606887 17.41289105 26.92424298 19.00923022 27.125 21.75 C27.22492502 27.92718312 25.57699697 32.12289705 21.45703125 36.72265625 C16.46087459 41.37582733 10.89342898 44.14580587 4 44.1875 C3.01 44.125625 2.02 44.06375 1 44 C3.62556439 42.24962374 6.08629437 41.00377087 8.9375 39.6875 C14.98628759 36.6851178 17.7814509 33.35860307 20 27 C20.94622669 20.33657206 20.43459247 15.1314592 16.40625 9.6484375 C11.76040074 4.20246976 6.75160132 2.73050752 0 1 C0 0.67 0 0.34 0 0 Z " fill="#FA8F49" transform="translate(32,20)"/>
<path d="M0 0 C0 4.3495545 -0.17134666 4.67009737 -2.9375 7.625 C-5.25076414 10.11506425 -5.25076414 10.11506425 -7 13 C-8.9375 12.375 -8.9375 12.375 -11 11 C-12.20066448 7.39800656 -12.30132364 5.67797818 -10.75 2.1875 C-7.54354246 -1.82057192 -4.62007022 -0.92401404 0 0 Z " fill="#FF7693" transform="translate(14,22)"/>
<path d="M0 0 C2.60401838 2.8481451 3.01309215 4.33230053 2.9375 8.1875 C2 11 2 11 -0.0625 12.375 C-0.701875 12.58125 -1.34125 12.7875 -2 13 C-2.5775 12.0925 -3.155 11.185 -3.75 10.25 C-5.66785116 7.47977054 -7.54402845 5.28054501 -10 3 C-9.67 2.01 -9.34 1.02 -9 0 C-5.78176644 -1.60911678 -3.4113678 -0.83787981 0 0 Z " fill="#FE7792" transform="translate(59,22)"/>
<path d="M0 0 C0.66 0.66 1.32 1.32 2 2 C1.42307692 8.57692308 1.42307692 8.57692308 0 10 C-3.4375 10.1875 -3.4375 10.1875 -7 10 C-9 8 -9 8 -9.375 5.0625 C-9 2 -9 2 -7.3125 0.0625 C-4.38550346 -1.28233625 -3.01415011 -1.03115662 0 0 Z " fill="#FA9147" transform="translate(49,6)"/>
<path d="M0 0 C1.21816406 0.03480469 1.21816406 0.03480469 2.4609375 0.0703125 C3.68683594 0.09738281 3.68683594 0.09738281 4.9375 0.125 C5.87722656 0.15980469 5.87722656 0.15980469 6.8359375 0.1953125 C6.8359375 2.1753125 6.8359375 4.1553125 6.8359375 6.1953125 C5.1859375 6.1953125 3.5359375 6.1953125 1.8359375 6.1953125 C1.8359375 8.1753125 1.8359375 10.1553125 1.8359375 12.1953125 C-0.1440625 12.1953125 -2.1240625 12.1953125 -4.1640625 12.1953125 C-4.21801728 10.57067408 -4.25683445 8.94552709 -4.2890625 7.3203125 C-4.31226562 6.41539063 -4.33546875 5.51046875 -4.359375 4.578125 C-4.09698992 1.37702701 -3.24821032 0.29315978 0 0 Z " fill="#FE7792" transform="translate(33.1640625,7.8046875)"/>
<path d="M0 0 C1.98 0.495 1.98 0.495 4 1 C4 5.95 4 10.9 4 16 C2.68 16.33 1.36 16.66 0 17 C-1.75559942 15.24440058 -1.13221919 12.96417558 -1.13671875 10.62890625 C-1.13285156 9.92636719 -1.12898438 9.22382812 -1.125 8.5 C-1.12886719 7.79746094 -1.13273437 7.09492187 -1.13671875 6.37109375 C-1.12661378 1.12661378 -1.12661378 1.12661378 0 0 Z " fill="#FFF5E5" transform="translate(39,34)"/>
<path d="M0 0 C1.98 0.495 1.98 0.495 4 1 C4 5.95 4 10.9 4 16 C2.68 16.33 1.36 16.66 0 17 C-1.75559942 15.24440058 -1.13221919 12.96417558 -1.13671875 10.62890625 C-1.13285156 9.92636719 -1.12898438 9.22382812 -1.125 8.5 C-1.12886719 7.79746094 -1.13273437 7.09492187 -1.13671875 6.37109375 C-1.12661378 1.12661378 -1.12661378 1.12661378 0 0 Z " fill="#FFF5E5" transform="translate(22,34)"/>
<path d="M0 0 C0.99 0.66 1.98 1.32 3 2 C3.375 5 3.375 5 3 8 C2.01 8.66 1.02 9.32 0 10 C-2 8 -2 8 -2.25 5 C-2 2 -2 2 0 0 Z " fill="#FE9B60" transform="translate(42,6)"/>
<path d="M0 0 C0.99 0 1.98 0 3 0 C2.67 1.32 2.34 2.64 2 4 C1.01 4 0.02 4 -1 4 C-0.67 2.68 -0.34 1.36 0 0 Z " fill="#FFD88D" transform="translate(49,1)"/>
<path d="M0 0 C1.32 0.33 2.64 0.66 4 1 C4 1.99 4 2.98 4 4 C3.01 4 2.02 4 1 4 C0.67 2.68 0.34 1.36 0 0 Z " fill="#FFDB91" transform="translate(48,17)"/>
<path d="M0 0 C1.32 0.33 2.64 0.66 4 1 C4 1.99 4 2.98 4 4 C2.68 3.67 1.36 3.34 0 3 C0 2.01 0 1.02 0 0 Z " fill="#FFD68F" transform="translate(51,14)"/>
<path d="M0 0 C2.475 0.495 2.475 0.495 5 1 C4.67 1.66 4.34 2.32 4 3 C2.68 3 1.36 3 0 3 C0 2.01 0 1.02 0 0 Z " fill="#FFDA98" transform="translate(52,10)"/>
<path d="M0 0 C0.99 0 1.98 0 3 0 C3.33 1.32 3.66 2.64 4 4 C2.68 3.67 1.36 3.34 0 3 C0 2.01 0 1.02 0 0 Z " fill="#FFDA97" transform="translate(39,1)"/>
<path d="M0 0 C0.99 0 1.98 0 3 0 C3 1.32 3 2.64 3 4 C2.01 4 1.02 4 0 4 C0 2.68 0 1.36 0 0 Z " fill="#FFD88D" transform="translate(44,0)"/>
<path d="M0 0 C0.99 0 1.98 0 3 0 C3 0.99 3 1.98 3 3 C1.68 3 0.36 3 -1 3 C-0.67 2.01 -0.34 1.02 0 0 Z " fill="#FFD88F" transform="translate(52,5)"/>
</svg>
